<svg width="126" height="40" viewBox="0 0 126 40" fill="none" xmlns="http://www.w3.org/2000/svg">
<path d="M19.8593 39.7185C30.8272 39.7185 39.7185 30.8272 39.7185 19.8593C39.7185 8.8913 30.8272 0 19.8593 0C8.89129 0 0 8.8913 0 19.8593C0 30.8272 8.89129 39.7185 19.8593 39.7185Z" fill="#9644F5"/>
<path d="M9.12405 23.9801C9.11412 20.2416 11.7467 17.1039 15.5125 16.3976C15.8352 16.338 15.9271 16.23 15.9184 15.9148C15.8979 15.0754 15.8979 14.2357 15.9184 13.3964C15.9246 13.0948 15.829 12.9148 15.5696 12.746C14.6648 12.1564 14.2949 11.084 14.6263 10.1196C14.7856 9.63163 15.1018 9.21004 15.5257 8.92045C15.9495 8.63086 16.4572 8.48953 16.9697 8.51844C17.9254 8.56313 18.8005 9.27434 19.0586 10.2189C19.3193 11.1672 18.9569 12.1986 18.1153 12.7336C17.8174 12.9222 17.7244 13.1121 17.7343 13.4497C17.7591 14.2888 17.7504 15.1279 17.7392 15.9681C17.7355 16.2114 17.7715 16.3418 18.0607 16.379C18.6106 16.4522 19.148 16.5999 19.6569 16.8184C19.8481 16.9003 19.9511 16.8506 20.0789 16.7091C21.86 14.7468 23.6474 12.7882 25.4384 10.8345C25.6234 10.6335 25.57 10.4957 25.4856 10.2884C25.0487 9.21103 25.3044 8.04803 26.1285 7.27848C26.8807 6.5772 28.1244 6.37737 29.023 6.81303C30.0805 7.32565 30.6614 8.30868 30.5894 9.463C30.4926 11.0071 28.9908 12.1701 27.4666 11.8536C27.1575 11.789 26.9788 11.8635 26.7789 12.0844C25.121 13.917 23.4561 15.7432 21.7843 17.5631C21.582 17.7828 21.5535 17.9007 21.8054 18.1192C24.541 20.5047 25.2858 24.0993 23.7268 27.3736C23.6089 27.6218 23.635 27.7633 23.8261 27.9445C24.2816 28.3777 24.7223 28.8258 25.1592 29.2788C25.3329 29.4588 25.4955 29.506 25.7537 29.4402C26.7591 29.187 27.8017 29.6388 28.3031 30.5113C28.5516 30.9432 28.6542 31.4436 28.5959 31.9384C28.5375 32.4331 28.3213 32.8959 27.9792 33.2581C27.2916 33.9892 26.1683 34.2014 25.2957 33.7645C24.3425 33.2879 23.8162 32.2689 24.0421 31.2225C24.1079 30.9222 24.0384 30.7509 23.8373 30.561C23.4671 30.2109 23.1082 29.8492 22.7612 29.4762C22.5588 29.2577 22.4335 29.254 22.2026 29.4712C19.8456 31.6681 17.1124 32.2366 14.0963 31.1642C11.0976 30.1005 9.13274 27.1849 9.12405 23.9814" fill="white"/>
<path d="M68.9352 29.4076C67.7476 29.4076 66.6633 29.1021 65.6823 28.4911C64.7098 27.8801 63.931 27.0625 63.3458 26.0385C62.7692 25.0058 62.481 23.8655 62.481 22.6177C62.481 21.6711 62.6488 20.789 62.9844 19.9715C63.32 19.1453 63.7804 18.4224 64.3656 17.8028C64.9594 17.1746 65.6478 16.6841 66.431 16.3313C67.2141 15.9784 68.0488 15.802 68.9352 15.802C69.9249 15.802 70.8328 16.0085 71.6589 16.4216C72.4851 16.8261 73.1907 17.3897 73.7759 18.1126C74.3611 18.8269 74.7914 19.653 75.0668 20.5911C75.3421 21.5205 75.4239 22.5101 75.312 23.56H65.3596C65.4714 24.1538 65.6866 24.6917 66.005 25.1736C66.332 25.6469 66.7451 26.0212 67.2442 26.2966C67.7519 26.572 68.3156 26.714 68.9352 26.7226C69.5892 26.7226 70.183 26.5591 70.7166 26.2321C71.2588 25.9051 71.7019 25.4533 72.0462 24.8767L74.7699 25.5092C74.2535 26.6538 73.4747 27.5918 72.4334 28.3233C71.3921 29.0461 70.2261 29.4076 68.9352 29.4076ZM65.2692 21.5076H72.6012C72.5152 20.888 72.2957 20.3286 71.9429 19.8295C71.5987 19.3217 71.1641 18.9216 70.6391 18.629C70.1228 18.3278 69.5548 18.1772 68.9352 18.1772C68.3242 18.1772 67.7562 18.3235 67.2313 18.6161C66.715 18.9087 66.2847 19.3088 65.9404 19.8166C65.6048 20.3157 65.3811 20.8794 65.2692 21.5076Z" fill="#030007"/>
<path d="M75.8998 29.072L80.6243 22.5919L75.9256 16.1376H79.2431L82.2766 20.2942L85.323 16.1376H88.6276L83.9418 22.5919L88.6663 29.072H85.3488L82.2766 24.8638L79.2173 29.072H75.8998Z" fill="#030007"/>
<path d="M95.7355 29.4076C94.5479 29.4076 93.4636 29.1021 92.4826 28.4911C91.5101 27.8801 90.7313 27.0625 90.1461 26.0385C89.5696 25.0058 89.2813 23.8655 89.2813 22.6177C89.2813 21.6711 89.4491 20.789 89.7847 19.9715C90.1203 19.1453 90.5807 18.4224 91.1659 17.8028C91.7597 17.1746 92.4482 16.6841 93.2313 16.3313C94.0144 15.9784 94.8491 15.802 95.7355 15.802C96.9231 15.802 98.0031 16.1075 98.9756 16.7185C99.9566 17.3295 100.735 18.1514 101.312 19.184C101.897 20.2167 102.19 21.3613 102.19 22.6177C102.19 23.5557 102.022 24.4335 101.686 25.251C101.351 26.0686 100.886 26.7915 100.292 27.4197C99.7071 28.0393 99.0229 28.5255 98.2398 28.8783C97.4653 29.2312 96.6305 29.4076 95.7355 29.4076ZM95.7355 26.7226C96.4498 26.7226 97.0909 26.5333 97.6589 26.1546C98.2269 25.776 98.6744 25.2769 99.0014 24.6572C99.337 24.029 99.5048 23.3492 99.5048 22.6177C99.5048 21.869 99.3327 21.1806 98.9885 20.5523C98.6529 19.9241 98.2011 19.425 97.6331 19.0549C97.0651 18.6763 96.4326 18.487 95.7355 18.487C95.0299 18.487 94.3887 18.6763 93.8122 19.0549C93.2442 19.4336 92.7924 19.937 92.4568 20.5652C92.1297 21.1935 91.9662 21.8776 91.9662 22.6177C91.9662 23.3836 92.1383 24.0764 92.4826 24.696C92.8268 25.3156 93.2829 25.8104 93.8509 26.1805C94.4275 26.5419 95.0557 26.7226 95.7355 26.7226Z" fill="#030007"/>
<path d="M104.275 29.072V16.1634H106.96V17.5317C107.408 16.9982 107.959 16.5765 108.613 16.2667C109.267 15.9569 109.972 15.802 110.73 15.802C111.211 15.802 111.689 15.8665 112.162 15.9956L111.091 18.7064C110.755 18.5773 110.42 18.5128 110.084 18.5128C109.516 18.5128 108.996 18.6548 108.522 18.9388C108.049 19.2142 107.67 19.5885 107.386 20.0618C107.102 20.5351 106.96 21.0601 106.96 21.6367V29.072H104.275Z" fill="#030007"/>
<path d="M123.092 16.1634H125.777V29.072H123.079L122.976 27.2002C122.597 27.8629 122.085 28.3964 121.44 28.8009C120.794 29.2054 120.033 29.4076 119.155 29.4076C118.208 29.4076 117.317 29.2312 116.483 28.8783C115.648 28.5169 114.912 28.0178 114.275 27.3809C113.647 26.7441 113.157 26.0126 112.804 25.1865C112.451 24.3517 112.275 23.4568 112.275 22.5015C112.275 21.5807 112.447 20.7158 112.791 19.9069C113.135 19.0894 113.613 18.3751 114.224 17.7641C114.835 17.1531 115.54 16.6755 116.341 16.3313C117.15 15.9784 118.015 15.802 118.935 15.802C119.873 15.802 120.7 16.0171 121.414 16.4474C122.137 16.8691 122.735 17.4113 123.208 18.0739L123.092 16.1634ZM119.09 26.813C119.848 26.813 120.51 26.6279 121.078 26.2579C121.646 25.8793 122.085 25.3715 122.395 24.7347C122.713 24.0979 122.872 23.3922 122.872 22.6177C122.872 21.8346 122.713 21.1246 122.395 20.4878C122.076 19.851 121.633 19.3475 121.065 18.9775C120.506 18.5988 119.848 18.4095 119.09 18.4095C118.342 18.4095 117.657 18.5988 117.038 18.9775C116.418 19.3561 115.928 19.8639 115.566 20.5007C115.205 21.1375 115.024 21.8432 115.024 22.6177C115.024 23.4008 115.209 24.1108 115.579 24.7476C115.958 25.3758 116.453 25.8793 117.064 26.2579C117.683 26.6279 118.359 26.813 119.09 26.813Z" fill="#030007"/>
<path d="M50.0801 29V10.28H53.2131V26.062H61.4811V29H50.0801Z" fill="#030007"/>
</svg>
